<svg width="512" height="512" viewBox="0 0 512 512" fill="none" xmlns="http://www.w3.org/2000/svg">
  <!-- 背景：圆角矩形，柔和的粉色 -->
  <rect x="0" y="0" width="512" height="512" rx="128" fill="#FFB7C5"/>
  
  <!-- 装饰：稍微深一点的粉色圆圈，增加层次感 -->
  <circle cx="256" cy="256" r="180" fill="#FF9EAA" fill-opacity="0.5"/>

  <!-- 猫猫头部轮廓 -->
  <path d="M166 170C166 170 140 110 170 100C200 90 210 140 210 140H302C302 140 312 90 342 100C372 110 346 170 346 170C386 190 406 230 396 280C386 330 356 370 256 370C156 370 126 330 116 280C106 230 126 190 166 170Z" fill="white"/>

  <!-- 左耳内部 -->
  <path d="M175 145L165 115L190 135Z" fill="#FFB7C5"/>
  <!-- 右耳内部 -->
  <path d="M337 145L347 115L322 135Z" fill="#FFB7C5"/>

  <!-- 眼睛：左 -->
  <ellipse cx="206" cy="240" rx="12" ry="18" fill="#4A4A4A"/>
  <!-- 眼睛：右 -->
  <ellipse cx="306" cy="240" rx="12" ry="18" fill="#4A4A4A"/>

  <!-- 鼻子 -->
  <path d="M246 275H266L256 285L246 275Z" fill="#FF9EAA"/>

  <!-- 嘴巴 -->
  <path d="M256 285C256 285 246 305 226 300" stroke="#4A4A4A" stroke-width="4" stroke-linecap="round"/>
  <path d="M256 285C256 285 266 305 286 300" stroke="#4A4A4A" stroke-width="4" stroke-linecap="round"/>

  <!-- 胡须：左 -->
  <line x1="140" y1="260" x2="180" y2="270" stroke="#4A4A4A" stroke-width="4" stroke-linecap="round" stroke-opacity="0.6"/>
  <line x1="140" y1="285" x2="180" y2="285" stroke="#4A4A4A" stroke-width="4" stroke-linecap="round" stroke-opacity="0.6"/>
  
  <!-- 胡须：右 -->
  <line x1="372" y1="260" x2="332" y2="270" stroke="#4A4A4A" stroke-width="4" stroke-linecap="round" stroke-opacity="0.6"/>
  <line x1="372" y1="285" x2="332" y2="285" stroke="#4A4A4A" stroke-width="4" stroke-linecap="round" stroke-opacity="0.6"/>

  <!-- 腮红 -->
  <circle cx="180" cy="290" r="15" fill="#FF9EAA" fill-opacity="0.6"/>
  <circle cx="332" cy="290" r="15" fill="#FF9EAA" fill-opacity="0.6"/>
</svg>

